<svg width="1280" height="640" viewBox="0 0 1280 640" fill="none" xmlns="http://www.w3.org/2000/svg" role="img" aria-labelledby="title desc">
  <title id="title">agencyteam social preview</title>
  <desc id="desc">Expert orchestration framework for OpenClaw. Turn agency-agents into installable multi-agent workflows for code review, security review, and AI automation.</desc>
  <defs>
    <linearGradient id="bg" x1="80" y1="40" x2="1200" y2="600" gradientUnits="userSpaceOnUse">
      <stop stop-color="#0B1220"/>
      <stop offset="0.5" stop-color="#111827"/>
      <stop offset="1" stop-color="#1E1B4B"/>
    </linearGradient>
    <radialGradient id="glowA" cx="0" cy="0" r="1" gradientUnits="userSpaceOnUse" gradientTransform="translate(1010 120) rotate(90) scale(220 340)">
      <stop stop-color="#22D3EE" stop-opacity="0.30"/>
      <stop offset="1" stop-color="#22D3EE" stop-opacity="0"/>
    </radialGradient>
    <radialGradient id="glowB" cx="0" cy="0" r="1" gradientUnits="userSpaceOnUse" gradientTransform="translate(1180 520) rotate(90) scale(260 360)">
      <stop stop-color="#8B5CF6" stop-opacity="0.26"/>
      <stop offset="1" stop-color="#8B5CF6" stop-opacity="0"/>
    </radialGradient>
    <linearGradient id="lineA" x1="0" y1="0" x2="1" y2="1">
      <stop stop-color="#22D3EE"/>
      <stop offset="1" stop-color="#8B5CF6"/>
    </linearGradient>
    <filter id="soft" x="-20%" y="-20%" width="140%" height="140%">
      <feGaussianBlur stdDeviation="24"/>
    </filter>
  </defs>

  <rect width="1280" height="640" rx="28" fill="url(#bg)"/>
  <rect x="24" y="24" width="1232" height="592" rx="22" stroke="rgba(255,255,255,0.08)" stroke="#FFFFFF" stroke-opacity="0.08"/>

  <g opacity="0.16">
    <path d="M0 80H1280" stroke="#94A3B8" stroke-opacity="0.16"/>
    <path d="M0 160H1280" stroke="#94A3B8" stroke-opacity="0.10"/>
    <path d="M0 240H1280" stroke="#94A3B8" stroke-opacity="0.10"/>
    <path d="M0 320H1280" stroke="#94A3B8" stroke-opacity="0.10"/>
    <path d="M0 400H1280" stroke="#94A3B8" stroke-opacity="0.10"/>
    <path d="M0 480H1280" stroke="#94A3B8" stroke-opacity="0.10"/>
    <path d="M0 560H1280" stroke="#94A3B8" stroke-opacity="0.10"/>
    <path d="M160 0V640" stroke="#94A3B8" stroke-opacity="0.10"/>
    <path d="M320 0V640" stroke="#94A3B8" stroke-opacity="0.10"/>
    <path d="M480 0V640" stroke="#94A3B8" stroke-opacity="0.10"/>
    <path d="M640 0V640" stroke="#94A3B8" stroke-opacity="0.10"/>
    <path d="M800 0V640" stroke="#94A3B8" stroke-opacity="0.10"/>
    <path d="M960 0V640" stroke="#94A3B8" stroke-opacity="0.10"/>
    <path d="M1120 0V640" stroke="#94A3B8" stroke-opacity="0.10"/>
  </g>

  <circle cx="1010" cy="120" r="220" fill="url(#glowA)" filter="url(#soft)"/>
  <circle cx="1180" cy="520" r="240" fill="url(#glowB)" filter="url(#soft)"/>

  <g opacity="0.95">
    <path d="M792 154L934 110L1086 168L1158 286L1098 404L926 438L786 366L734 258L792 154Z" stroke="url(#lineA)" stroke-width="3"/>
    <path d="M934 110L926 438" stroke="#60A5FA" stroke-opacity="0.65" stroke-width="2"/>
    <path d="M792 154L1098 404" stroke="#22D3EE" stroke-opacity="0.35" stroke-width="2"/>
    <path d="M1086 168L786 366" stroke="#8B5CF6" stroke-opacity="0.35" stroke-width="2"/>
    <circle cx="792" cy="154" r="10" fill="#22D3EE"/>
    <circle cx="934" cy="110" r="12" fill="#A78BFA"/>
    <circle cx="1086" cy="168" r="10" fill="#22D3EE"/>
    <circle cx="1158" cy="286" r="12" fill="#A78BFA"/>
    <circle cx="1098" cy="404" r="10" fill="#22D3EE"/>
    <circle cx="926" cy="438" r="12" fill="#A78BFA"/>
    <circle cx="786" cy="366" r="10" fill="#22D3EE"/>
    <circle cx="734" cy="258" r="12" fill="#A78BFA"/>
  </g>

  <g>
    <rect x="84" y="72" width="150" height="34" rx="17" fill="#111827" stroke="#22D3EE" stroke-opacity="0.45"/>
    <text x="112" y="94" fill="#A5F3FC" font-family="Inter, Segoe UI, Arial, sans-serif" font-size="15" font-weight="600">OpenClaw skill</text>

    <text x="84" y="196" fill="#F8FAFC" font-family="Inter, Segoe UI, Arial, sans-serif" font-size="88" font-weight="800" letter-spacing="-2">agencyteam</text>
    <text x="86" y="254" fill="#C4B5FD" font-family="Inter, Segoe UI, Arial, sans-serif" font-size="30" font-weight="600">Expert orchestration framework for OpenClaw</text>

    <text x="84" y="322" fill="#CBD5E1" font-family="Inter, Segoe UI, Arial, sans-serif" font-size="28" font-weight="400">Turn agency-agents into installable multi-agent workflows</text>
    <text x="84" y="362" fill="#CBD5E1" font-family="Inter, Segoe UI, Arial, sans-serif" font-size="28" font-weight="400">for code review, security review, and AI automation.</text>
  </g>

  <g>
    <rect x="84" y="454" width="152" height="42" rx="21" fill="#0F172A" stroke="#334155"/>
    <text x="111" y="481" fill="#E2E8F0" font-family="Inter, Segoe UI, Arial, sans-serif" font-size="18" font-weight="600">OpenClaw</text>

    <rect x="248" y="454" width="160" height="42" rx="21" fill="#0F172A" stroke="#334155"/>
    <text x="274" y="481" fill="#E2E8F0" font-family="Inter, Segoe UI, Arial, sans-serif" font-size="18" font-weight="600">multi-agent</text>

    <rect x="420" y="454" width="156" height="42" rx="21" fill="#0F172A" stroke="#334155"/>
    <text x="451" y="481" fill="#E2E8F0" font-family="Inter, Segoe UI, Arial, sans-serif" font-size="18" font-weight="600">code review</text>

    <rect x="588" y="454" width="170" height="42" rx="21" fill="#0F172A" stroke="#334155"/>
    <text x="618" y="481" fill="#E2E8F0" font-family="Inter, Segoe UI, Arial, sans-serif" font-size="18" font-weight="600">security review</text>
  </g>

  <text x="84" y="572" fill="#64748B" font-family="Inter, Segoe UI, Arial, sans-serif" font-size="18" font-weight="500">github.com/siubing05/agencyteam-openclaw</text>
</svg>
